<svg width="39" height="40" viewBox="0 0 39 40" fill="none" xmlns="http://www.w3.org/2000/svg">
<path d="M37.9236 20C37.9236 30.7887 29.5273 39.5 19.2118 39.5C8.89633 39.5 0.5 30.7887 0.5 20C0.5 9.21131 8.89633 0.5 19.2118 0.5C29.5273 0.5 37.9236 9.21131 37.9236 20Z" fill="#1D1D1D" stroke="white"/>
<path d="M18.2024 25.9708V23.659C18.2024 21.6777 16.5962 20.0714 14.6148 20.0714H12.5986C12.2831 20.0714 12.0272 19.8156 12.0272 19.5C12.0272 19.1844 12.2831 18.9286 12.5987 18.9286H14.6148C16.5962 18.9286 18.2024 17.3223 18.2024 15.341V13.0292C18.2024 12.7369 18.4394 12.5 18.7317 12.5C19.0239 12.5 19.2609 12.7369 19.2609 13.0292V15.341C19.2609 17.3223 20.8671 18.9286 22.8485 18.9286H24.8647C25.1803 18.9286 25.4361 19.1844 25.4361 19.5C25.4361 19.8156 25.1803 20.0714 24.8647 20.0714H22.8485C20.8671 20.0714 19.2609 21.6777 19.2609 23.659V25.9708C19.2609 26.2631 19.0239 26.5 18.7317 26.5C18.4394 26.5 18.2024 26.2631 18.2024 25.9708Z" fill="#1D1D1D" stroke="white"/>
</svg>
