<svg width="20" height="20" viewBox="0 0 20 20" fill="none" xmlns="http://www.w3.org/2000/svg">
<g clip-path="url(#clip0_1_868)">
<path d="M15.8333 5.00008C15.8333 4.77907 15.7455 4.56711 15.5893 4.41083C15.433 4.25455 15.221 4.16675 15 4.16675H8.33334C8.11233 4.16675 7.90037 4.25455 7.74409 4.41083C7.58781 4.56711 7.50001 4.77907 7.50001 5.00008C7.50001 5.2211 7.58781 5.43306 7.74409 5.58934C7.90037 5.74562 8.11233 5.83341 8.33334 5.83341H12.9883L4.69668 14.1251C4.54488 14.2823 4.46088 14.4928 4.46278 14.7112C4.46468 14.9297 4.55232 15.1388 4.70683 15.2933C4.86133 15.4478 5.07035 15.5354 5.28884 15.5373C5.50734 15.5392 5.71784 15.4552 5.87501 15.3034L14.1667 7.01175V11.6667C14.1667 11.8878 14.2545 12.0997 14.4108 12.256C14.567 12.4123 14.779 12.5001 15 12.5001C15.221 12.5001 15.433 12.4123 15.5893 12.256C15.7455 12.0997 15.8333 11.8878 15.8333 11.6667V5.00008Z" fill="#919191"/>
</g>
<defs>
<clipPath id="clip0_1_868">
<rect width="20" height="20" fill="white" transform="matrix(-1 0 0 1 20 0)"/>
</clipPath>
</defs>
</svg>
