<svg width="15" height="15" viewBox="0 0 15 15" fill="none" xmlns="http://www.w3.org/2000/svg">
<g clip-path="url(#clip0_1_849)">
<path d="M11.875 3.75C11.875 3.58424 11.8092 3.42527 11.6919 3.30806C11.5747 3.19085 11.4158 3.125 11.25 3.125H6.25C6.08424 3.125 5.92527 3.19085 5.80806 3.30806C5.69085 3.42527 5.625 3.58424 5.625 3.75C5.625 3.91576 5.69085 4.07473 5.80806 4.19194C5.92527 4.30915 6.08424 4.375 6.25 4.375H9.74125L3.5225 10.5938C3.40865 10.7116 3.34565 10.8695 3.34708 11.0334C3.3485 11.1972 3.41423 11.354 3.53011 11.4699C3.64599 11.5858 3.80275 11.6515 3.96662 11.6529C4.1305 11.6543 4.28837 11.5913 4.40625 11.4775L10.625 5.25875V8.75C10.625 8.91576 10.6908 9.07473 10.8081 9.19194C10.9253 9.30915 11.0842 9.375 11.25 9.375C11.4158 9.375 11.5747 9.30915 11.6919 9.19194C11.8092 9.07473 11.875 8.91576 11.875 8.75V3.75Z" fill="#919191"/>
</g>
<defs>
<clipPath id="clip0_1_849">
<rect width="15" height="15" fill="white" transform="matrix(-1 0 0 1 15 0)"/>
</clipPath>
</defs>
</svg>
